<svg width="275" height="116" viewBox="0 0 375 116" fill="none" xmlns="http://www.w3.org/2000/svg">
<path d="M59.0337 16.3061C60.3119 16.3061 61.5752 16.6496 62.682 17.297L98.4229 38.2463C100.658 39.5563 102.044 41.9911 102.044 44.6021V92.282C102.044 96.3338 98.7839 99.6288 94.7746 99.6288H94.0828C92.0105 99.6288 90.0434 98.4585 88.8193 96.4949C82.3316 86.0841 71.1969 79.8711 59.0306 79.8711C46.8644 79.8711 35.7297 86.0872 29.242 96.4949C28.0389 98.4281 25.747 99.6288 23.2627 99.6288C19.2684 99.6288 16.02 96.3459 16.02 92.3093V44.6021C16.02 41.9911 17.4066 39.5563 19.6414 38.2463L55.3823 17.297C56.4921 16.6496 57.7554 16.3061 59.0337 16.3061ZM59.0337 0.5C55.0634 0.5 51.0932 1.5426 47.5411 3.62475L11.8002 24.574C4.732 28.717 0.382812 36.3465 0.382812 44.6021V92.3093C0.382812 105.082 10.6272 115.435 23.2657 115.435C31.0166 115.435 38.3465 111.547 42.4791 104.921C45.941 99.3674 52.0617 95.6772 59.0337 95.6772C66.0056 95.6772 72.1263 99.3674 75.5882 104.921C79.6156 111.386 86.5244 115.435 94.0858 115.435H94.7776C107.431 115.435 117.688 105.07 117.688 92.282V44.6021C117.688 36.3465 113.338 28.717 106.273 24.574L70.5322 3.62475C66.9741 1.5426 63.0039 0.5 59.0337 0.5Z" fill="#FF2700"/>
<path d="M162.974 97.2319C170.989 97.2319 177.577 94.0366 182.078 88.7479C183.067 87.5359 182.847 86.4341 181.42 85.3323L174.283 79.9334C172.965 78.9418 171.867 79.0519 170.55 80.1538C169.122 81.3658 166.926 82.3574 163.413 82.3574C156.825 82.3574 152.324 77.5094 152.324 70.8985C152.324 64.2876 156.825 59.5498 163.413 59.5498C166.817 59.5498 169.122 60.6516 170.55 61.8636C171.867 62.9654 172.965 63.0756 174.283 62.084L181.42 56.5749C182.737 55.4731 182.957 54.1509 181.859 52.8287C177.467 47.7604 170.879 44.6753 162.974 44.6753C147.602 44.6753 137.062 55.4731 137.062 70.8985C137.062 86.3239 147.602 97.2319 162.974 97.2319Z" fill="#111820"/>
<path d="M212.567 97.1217C218.166 97.1217 222.448 95.2486 225.633 92.0534V94.1468C225.633 95.469 226.621 96.2403 228.268 96.2403H238.589C240.235 96.2403 241.224 95.2486 241.224 93.5959V48.2011C241.224 46.5484 240.235 45.5567 238.589 45.5567H228.268C226.621 45.5567 225.633 46.5484 225.633 48.2011V49.7436C222.448 46.6585 218.166 44.7855 212.567 44.7855C198.952 44.7855 188.851 55.4731 188.851 70.8985C188.851 85.9934 198.952 97.1217 212.567 97.1217ZM214.872 82.3574C208.285 82.3574 204.003 77.5094 204.003 70.8985C204.003 64.2876 208.285 59.5498 214.872 59.5498C221.46 59.5498 225.633 64.2876 225.633 70.8985C225.633 77.5094 221.46 82.3574 214.872 82.3574Z" fill="#111820"/>
<path d="M258.841 97.0115C263.562 97.0115 266.966 93.5959 266.966 88.8581C266.966 84.0101 263.562 80.7047 258.841 80.7047C254.01 80.7047 250.716 84.0101 250.716 88.8581C250.716 93.5959 254.01 97.0115 258.841 97.0115Z" fill="#FF2700"/>
<path d="M294.232 97.7828C307.188 97.7828 315.313 92.1636 315.313 81.3658C315.313 70.3476 301.589 66.4912 297.856 65.1691C294.232 63.8469 288.633 62.8552 288.633 59.4396C288.633 57.6767 290.06 56.3545 293.573 56.3545C297.307 56.3545 301.369 58.3378 303.785 60.3211C304.992 61.3127 306.09 61.5331 307.408 60.6516L313.337 56.6851C314.764 55.8036 315.203 54.4814 314.215 53.0491C310.702 48.4214 303.894 44.3447 294.122 44.3447C283.362 44.3447 273.481 49.0825 273.481 60.2109C273.481 71.5596 287.205 75.0854 290.829 76.4076C294.452 77.7298 300.161 78.7214 300.161 81.9167C300.161 84.3407 298.185 85.4425 294.342 85.4425C290.06 85.4425 285.558 82.5777 283.143 80.2639C282.045 78.9418 280.947 78.7214 279.629 79.6028L273.151 84.0101C271.724 85.0017 271.395 86.2137 272.163 87.6461C275.567 92.8246 282.923 97.7828 294.232 97.7828Z" fill="#111820"/>
<path d="M345.416 97.1217C351.016 97.1217 355.298 95.2486 358.482 92.0534V94.1468C358.482 95.469 359.47 96.2403 361.117 96.2403H371.438C373.085 96.2403 374.073 95.2486 374.073 93.5959V48.2011C374.073 46.5484 373.085 45.5567 371.438 45.5567H361.117C359.47 45.5567 358.482 46.5484 358.482 48.2011V49.7436C355.298 46.6585 351.016 44.7855 345.416 44.7855C331.802 44.7855 321.7 55.4731 321.7 70.8985C321.7 85.9934 331.802 97.1217 345.416 97.1217ZM347.722 82.3574C341.134 82.3574 336.852 77.5094 336.852 70.8985C336.852 64.2876 341.134 59.5498 347.722 59.5498C354.31 59.5498 358.482 64.2876 358.482 70.8985C358.482 77.5094 354.31 82.3574 347.722 82.3574Z" fill="#111820"/>
</svg>
