<svg width="08" height="56" viewBox="0 0 118 116" fill="none" xmlns="http://www.w3.org/2000/svg">
<path d="M59.0337 16.3061C60.3119 16.3061 61.5752 16.6496 62.682 17.2971L98.4229 38.2463C100.658 39.5563 102.044 41.9911 102.044 44.6021V92.282C102.044 96.3338 98.7839 99.6288 94.7746 99.6288H94.0828C92.0105 99.6288 90.0434 98.4585 88.8193 96.4949C82.3316 86.0841 71.1969 79.8711 59.0306 79.8711C46.8643 79.8711 35.7297 86.0872 29.242 96.4949C28.0389 98.4281 25.747 99.6288 23.2627 99.6288C19.2684 99.6288 16.02 96.3459 16.02 92.3093V44.6021C16.02 41.9911 17.4066 39.5563 19.6413 38.2463L55.3823 17.2971C56.4921 16.6496 57.7554 16.3061 59.0337 16.3061ZM59.0337 0.5C55.0634 0.5 51.0932 1.5426 47.5411 3.62475L11.8002 24.5739C4.732 28.717 0.382812 36.3465 0.382812 44.6021V92.3093C0.382812 105.082 10.6272 115.435 23.2657 115.435C31.0166 115.435 38.3465 111.547 42.4791 104.921C45.941 99.3674 52.0617 95.6772 59.0337 95.6772C66.0056 95.6772 72.1263 99.3674 75.5882 104.921C79.6156 111.386 86.5244 115.435 94.0858 115.435H94.7776C107.431 115.435 117.688 105.07 117.688 92.282V44.6021C117.688 36.3465 113.338 28.717 106.273 24.5739L70.5322 3.62475C66.9741 1.5426 63.0039 0.5 59.0337 0.5Z" fill="#FF2700"/>
</svg>
